PathFileType	4	(X/Y/Z)	/Users/itak/Documents/Research/Walk-IL/dataset/trc/00268_00010.trc
DataRate	CameraRate	NumFrames	NumMarkers	Units	OrigDataRate	OrigDataStartFrame	OrigNumFrames
100.000000	100.000000	4	53	mm	100.000000	303	485
Frame#	Time	RPSI			LPSI			L3			STRN			T10			C7			CLAV			RBAK			LBAK			LSHO			LUPA			LAEL			LAOL			LWTS			LWPS			LFRA			LIFD			LHPS			LHTS			RSHO			RUPA			RAEL			RAOL			RWTS			RWPS			RFRA			RIFD			RHTS			RHPS			RBHD			LFHD			RFHD			LBHD			LHIP			RHIP			RASI			LKNE			LANK			LTIP			LTOE			LMT1			LMT5			LHEE			RKNE			RTHI			RANK			RTIP			RTOE			RMT1			RMT5			RHEE			LTHI			LASI			
		X1	Y1	Z1	X2	Y2	Z2	X3	Y3	Z3	X4	Y4	Z4	X5	Y5	Z5	X6	Y6	Z6	X7	Y7	Z7	X8	Y8	Z8	X9	Y9	Z9	X10	Y10	Z10	X11	Y11	Z11	X12	Y12	Z12	X13	Y13	Z13	X14	Y14	Z14	X15	Y15	Z15	X16	Y16	Z16	X17	Y17	Z17	X18	Y18	Z18	X19	Y19	Z19	X20	Y20	Z20	X21	Y21	Z21	X22	Y22	Z22	X23	Y23	Z23	X24	Y24	Z24	X25	Y25	Z25	X26	Y26	Z26	X27	Y27	Z27	X28	Y28	Z28	X29	Y29	Z29	X30	Y30	Z30	X31	Y31	Z31	X32	Y32	Z32	X33	Y33	Z33	X34	Y34	Z34	X35	Y35	Z35	X36	Y36	Z36	X37	Y37	Z37	X38	Y38	Z38	X39	Y39	Z39	X40	Y40	Z40	X41	Y41	Z41	X42	Y42	Z42	X43	Y43	Z43	X44	Y44	Z44	X45	Y45	Z45	X46	Y46	Z46	X47	Y47	Z47	X48	Y48	Z48	X49	Y49	Z49	X50	Y50	Z50	X51	Y51	Z51	X52	Y52	Z52	X53	Y53	Z53	

304	3.03	-585.6544189453125	979.3016357421875	138.298828125	-586.496826171875	974.0045776367188	-37.09112167358398	-564.2531127929688	1048.815673828125	38.1241569519043	-306.5606384277344	1209.21435546875	48.77523803710938	-567.43408203125	1158.765625	27.54104042053223	-515.4573974609375	1401.591430664062	9.097927093505859	-363.7442321777344	1312.681640625	38.22858047485352	-577.4514770507812	1268.563720703125	80.21300506591797	-518.9093017578125	1360.860473632812	-97.3216552734375	-420.7778625488281	1362.7705078125	-133.4380340576172	-427.5361938476562	1244.395751953125	-206.9632568359375	-401.714111328125	1044.947998046875	-221.5717468261719	-478.9157409667969	1023.721801757812	-187.1959838867188	-293.7997741699219	854.209716796875	-144.2971954345703	-305.3390808105469	835.0154418945312	-212.9355926513672	-367.026123046875	949.0478515625	-221.8127746582031	-244.2126007080078	673.3413696289062	-135.0287933349609	-284.0275268554688	751.03564453125	-206.4639587402344	-241.7885437011719	765.34326171875	-152.8505096435547	-468.7490234375	1384.899047851562	176.3673553466797	-493.7668762207031	1335.02783203125	243.1736297607422	-596.5578002929688	1093.67041015625	281.3073425292969	-597.1619873046875	1080.971801757812	186.5142822265625	-543.9406127929688	852.7499389648438	296.1787719726562	-618.4419555664062	866.6812133789062	336.1361694335938	-601.9434814453125	1025.524780273438	305.8584594726562	-585.5960083007812	672.3695678710938	309.845458984375	-556.5975952148438	738.359375	332.5773010253906	-623.4993896484375	754.48583984375	350.6719665527344	-499.6402587890625	1548.54833984375	100.8381805419922	-333.4169006347656	1609.9677734375	-17.27448463439941	-334.2848815917969	1603.351806640625	76.22156524658203	-497.6820678710938	1549.112060546875	-46.14618301391602	-524.8746337890625	919.5702514648438	-134.5238037109375	-480.9692993164062	927.9962158203125	238.5373382568359	-367.6734313964844	925.5676879882812	158.9530029296875	-534.741943359375	454.1033935546875	-94.61757659912109	-808.24658203125	86.81931304931641	-60.91267013549805	-672.9288330078125	264.2252197265625	-88.49595642089844	-622.7965698242188	39.98262023925781	27.92066383361816	-697.234619140625	43.60086059570312	56.79697036743164	-691.3243408203125	51.98799133300781	-54.8957405090332	-861.17041015625	106.4248809814453	-11.46699142456055	-332.4386901855469	474.0877075195312	171.3916168212891	-381.8127746582031	729.8191528320312	227.7378997802734	-264.7659912109375	38.53289794921875	113.1675720214844	-292.5963745117188	361.4921875	153.9817352294922	-71.69657897949219	52.98752593994141	59.59440612792969	-128.4317169189453	52.11038208007812	20.48138236999512	-158.1142272949219	32.39463043212891	135.6016845703125	-317.1493835449219	38.46280288696289	61.8631477355957	-514.5706176757812	595.29248046875	-118.2905731201172	-383.162841796875	916.2923583984375	-92.48680114746094	
305	3.04	-596.864501953125	976.6295776367188	139.5457763671875	-598.7730712890625	973.72021484375	-35.90381240844727	-576.2354125976562	1048.172485351562	39.3625373840332	-316.0189514160156	1207.062133789062	46.77020645141602	-578.053955078125	1159.351806640625	28.42610359191895	-523.27294921875	1401.555297851562	8.601816177368164	-372.2010498046875	1310.904418945312	36.53630447387695	-586.3733520507812	1269.537353515625	80.97449493408203	-527.84228515625	1360.409545898438	-97.70942687988281	-430.0123596191406	1361.127563476562	-134.6722564697266	-438.2071228027344	1242.415405273438	-207.5969390869141	-412.5189208984375	1043.081298828125	-221.9411926269531	-489.2306213378906	1021.626281738281	-186.6097106933594	-301.3466796875	854.7771606445312	-144.7418670654297	-313.7513732910156	834.6311645507812	-213.0367279052734	-377.0101623535156	947.6697998046875	-222.0168762207031	-247.88427734375	675.1500244140625	-134.5343933105469	-291.2579956054688	751.3310546875	-206.2241668701172	-247.6452026367188	767.028564453125	-153.4141235351562	-475.1600646972656	1384.832641601562	175.6616363525391	-499.5874938964844	1334.58544921875	243.0053863525391	-600.9111328125	1092.570678710938	282.3043212890625	-604.9644775390625	1081.016845703125	187.4375305175781	-546.998046875	851.7811279296875	292.4138793945312	-619.7737426757812	865.1919555664062	335.6852722167969	-605.3882446289062	1024.103637695312	306.2215270996094	-587.7044067382812	671.2705078125	305.4133911132812	-557.9208984375	736.9872436523438	327.7086791992188	-624.1136474609375	752.7579345703125	348.8883056640625	-507.3363647460938	1547.48193359375	99.50541687011719	-341.3541564941406	1609.284912109375	-18.82088279724121	-342.1090393066406	1602.6787109375	74.69149780273438	-505.5180969238281	1548.023681640625	-47.45112609863281	-537.2584838867188	920.62939453125	-134.2622985839844	-491.4883117675781	924.3388671875	238.5595855712891	-378.7405700683594	923.1826171875	158.1580810546875	-544.6675415039062	454.7968139648438	-93.81370544433594	-811.4345703125	82.77341461181641	-58.70061874389648	-679.4325561523438	262.2628784179688	-86.65721893310547	-623.1383056640625	39.99203872680664	28.45623016357422	-698.0050048828125	42.15708541870117	57.55731201171875	-692.998779296875	52.00893020629883	-53.90037155151367	-864.7855834960938	100.3311080932617	-8.830446243286133	-338.2523803710938	473.3635559082031	171.0004577636719	-391.7703857421875	727.7529907226562	227.2966918945312	-264.4385070800781	38.66883850097656	113.9822235107422	-297.0005493164062	361.4985961914062	154.2003936767578	-71.50525665283203	53.66167068481445	60.33581924438477	-128.3696136474609	53.11717987060547	21.27507591247559	-157.7744750976562	32.13883972167969	136.2325592041016	-316.6978759765625	38.66257095336914	62.8090705871582	-524.6771850585938	596.0699462890625	-118.2831192016602	-395.2984313964844	916.960205078125	-93.43911743164062	
306	3.05	-608.08447265625	973.9602661132812	140.5951843261719	-610.8327026367188	973.594970703125	-34.87117767333984	-588.2199096679688	1047.68603515625	40.54153060913086	-325.4425048828125	1205.093017578125	44.95342254638672	-588.6544189453125	1160.052124023438	29.33689308166504	-531.1170654296875	1401.597534179688	8.141382217407227	-380.6949462890625	1309.252807617188	34.97939682006836	-595.283935546875	1270.614135742188	81.79347991943359	-536.745361328125	1360.06494140625	-98.03217315673828	-439.2228088378906	1359.609008789062	-135.7800445556641	-448.8830871582031	1240.60595703125	-208.1311798095703	-423.5719909667969	1041.400634765625	-222.2552642822266	-499.8591613769531	1019.753479003906	-185.8810882568359	-309.2409057617188	855.4546508789062	-145.3169403076172	-322.5895080566406	834.3269653320312	-213.2463531494141	-387.3306579589844	946.4341430664062	-222.2400665283203	-252.0977783203125	677.1069946289062	-134.2112579345703	-298.5373840332031	751.65380859375	-205.9297180175781	-253.9676666259766	768.7835083007812	-154.1803588867188	-481.6385192871094	1384.888427734375	174.9704132080078	-505.4859008789062	1334.344116210938	242.8303070068359	-605.212158203125	1091.64794921875	283.4389343261719	-612.845947265625	1081.250244140625	188.6512298583984	-549.8883056640625	851.1306762695312	288.6814270019531	-620.6739501953125	863.9393920898438	335.3910522460938	-608.6528930664062	1022.917114257812	306.7261962890625	-589.4191284179688	670.4617309570312	301.0977172851562	-558.8880615234375	735.9458618164062	322.8417358398438	-624.16845703125	751.2903442382812	347.2565612792969	-515.0087890625	1546.532348632812	98.12240600585938	-349.2239074707031	1608.5859375	-20.40283393859863	-349.8995056152344	1602.04443359375	73.13298034667969	-513.29541015625	1546.970458984375	-48.80800628662109	-549.3589477539062	921.994873046875	-134.1488647460938	-502.1197814941406	920.6709594726562	238.5147247314453	-389.8090209960938	920.9696655273438	157.5010070800781	-554.2587890625	455.6179504394531	-92.99947357177734	-814.2260131835938	79.03818511962891	-56.37005615234375	-685.8031616210938	260.6961059570312	-84.86123657226562	-623.3603515625	39.93353652954102	28.81768226623535	-698.4867553710938	40.7459716796875	58.36381530761719	-694.5452270507812	51.93338775634766	-52.87485504150391	-867.7565307617188	94.6400146484375	-5.978544235229492	-344.1846923828125	472.693359375	170.7826690673828	-402.013671875	725.6487426757812	226.8906402587891	-264.0631103515625	38.92866897583008	114.9491271972656	-301.5284729003906	361.6260070800781	154.6285400390625	-71.28286743164062	54.49882125854492	61.16339874267578	-128.3136749267578	54.32857131958008	22.22298431396484	-157.3875732421875	31.83490371704102	136.8915252685547	-316.2024230957031	39.13301086425781	63.91582107543945	-534.4869384765625	596.9520263671875	-118.2865219116211	-407.1517944335938	918.00634765625	-94.26755523681641	
307	3.06	-619.265869140625	971.374267578125	141.4017028808594	-622.6200561523438	973.59912109375	-34.03496551513672	-600.1292724609375	1047.350219726562	41.63473892211914	-334.8099670410156	1203.337768554688	43.35670471191406	-599.1730346679688	1160.830078125	30.26097679138184	-539.008544921875	1401.69580078125	7.740142822265625	-389.2269592285156	1307.764526367188	33.58639526367188	-604.1546630859375	1271.745239257812	82.6727294921875	-545.6392211914062	1359.811645507812	-98.26769256591797	-448.42578125	1358.232543945312	-136.7384796142578	-459.5330505371094	1238.997680664062	-208.5596618652344	-434.8466491699219	1039.939697265625	-222.4872283935547	-510.7758178710938	1018.134765625	-185.0476226806641	-317.51806640625	856.2268676757812	-146.0200347900391	-331.8404235839844	834.116943359375	-213.5584564208984	-397.9684753417969	945.3712768554688	-222.4695739746094	-256.9584655761719	679.1487426757812	-134.0777282714844	-305.7970886230469	751.9829711914062	-205.5721282958984	-260.820556640625	770.54931640625	-155.1315612792969	-488.2106018066406	1385.057373046875	174.307373046875	-511.4735107421875	1334.307861328125	242.6609191894531	-609.5514526367188	1090.946533203125	284.6772155761719	-620.792236328125	1081.6806640625	190.1174163818359	-552.6454467773438	850.8734130859375	285.0610656738281	-621.1991577148438	862.9783935546875	335.2240295410156	-611.8316040039062	1022.025329589844	307.3363037109375	-590.719970703125	669.9951782226562	296.9598083496094	-559.5321044921875	735.306884765625	318.0510864257812	-623.6947631835938	750.1406860351562	345.7733764648438	-522.6608276367188	1545.723388671875	96.70389556884766	-357.0224914550781	1607.854614257812	-22.01107597351074	-357.6481628417969	1601.43798828125	71.55008697509766	-521.0206298828125	1545.96630859375	-50.20421981811523	-561.123046875	923.5658569335938	-134.1884155273438	-512.825439453125	917.1226196289062	238.3953094482422	-400.8167419433594	918.999755859375	156.9904327392578	-563.5826416015625	456.51904296875	-92.27992248535156	-816.6558837890625	75.55012512207031	-54.08890533447266	-692.0628051757812	259.4527587890625	-83.23418426513672	-623.5186767578125	39.82658767700195	29.02754020690918	-698.77880859375	39.40045547485352	59.16876983642578	-695.9569091796875	51.75403594970703	-51.8820915222168	-870.1992797851562	89.31541442871094	-3.139119386672974	-350.2868347167969	472.1177062988281	170.7726287841797	-412.4852294921875	723.5843505859375	226.5230255126953	-263.6782531738281	39.32855606079102	116.0694885253906	-306.2261352539062	361.912841796875	155.2998657226562	-71.05609130859375	55.58389663696289	62.12171936035156	-128.293701171875	55.82558441162109	23.36242294311523	-156.9864349365234	31.48034858703613	137.5580596923828	-315.7255554199219	39.9301872253418	65.17176818847656	-544.0505981445312	597.8776245117188	-118.3183517456055	-418.6677856445312	919.3287353515625	-94.93690490722656	
